<?xml version="1.0" encoding="UTF-8"?>
<!DOCTYPE svg PUBLIC "-//W3C//DTD SVG 1.1//EN" "http://www.w3.org/Graphics/SVG/1.1/DTD/svg11.dtd">
<svg xmlns="http://www.w3.org/2000/svg" version="1.1" width="500px" height="500px" style="shape-rendering:geometricPrecision; text-rendering:geometricPrecision; image-rendering:optimizeQuality; fill-rule:evenodd; clip-rule:evenodd" xmlns:xlink="http://www.w3.org/1999/xlink">
<g><path style="opacity:0.929" fill="#63625d" d="M 224.5,212.5 C 221.495,214.277 218.162,215.277 214.5,215.5C 217.505,213.723 220.838,212.723 224.5,212.5 Z"/></g>
<g><path style="opacity:1" fill="#171716" d="M 241.5,216.5 C 241.427,218.027 242.094,219.027 243.5,219.5C 243.5,223.833 243.5,228.167 243.5,232.5C 239.963,240.251 236.963,248.251 234.5,256.5C 231.107,256.625 229.774,254.958 230.5,251.5C 230.99,247.522 232.323,243.855 234.5,240.5C 235.906,240.027 236.573,239.027 236.5,237.5C 238.377,231.982 238.877,226.315 238,220.5C 233.23,217.01 228.064,216.51 222.5,219C 201.712,235.413 191.879,256.913 193,283.5C 194.063,291.983 197.896,298.65 204.5,303.5C 205.964,304.16 207.631,304.493 209.5,304.5C 212.205,304.684 214.538,304.017 216.5,302.5C 217.833,302.5 219.167,302.5 220.5,302.5C 220.567,303.959 220.234,305.292 219.5,306.5C 208.334,312.084 197.334,311.751 186.5,305.5C 186.027,304.094 185.027,303.427 183.5,303.5C 183.027,302.094 182.027,301.427 180.5,301.5C 180.167,300.5 179.5,299.833 178.5,299.5C 173.977,294.784 171.31,289.117 170.5,282.5C 170.5,280.167 170.5,277.833 170.5,275.5C 165.833,275.5 161.167,275.5 156.5,275.5C 156.414,274.504 156.748,273.671 157.5,273C 161.025,272.821 164.359,272.321 167.5,271.5C 167.833,271.5 168.167,271.5 168.5,271.5C 170.308,270.082 170.975,268.082 170.5,265.5C 171.924,263.485 172.59,261.152 172.5,258.5C 173.37,253.777 175.036,249.444 177.5,245.5C 178.906,245.027 179.573,244.027 179.5,242.5C 181.785,238.273 184.785,234.607 188.5,231.5C 191.427,230.243 193.761,228.243 195.5,225.5C 196.5,225.167 197.167,224.5 197.5,223.5C 197.973,222.094 198.973,221.427 200.5,221.5C 202.027,221.573 203.027,220.906 203.5,219.5C 204.496,219.414 205.329,219.748 206,220.5C 208.492,218.738 210.992,217.071 213.5,215.5C 213.833,215.5 214.167,215.5 214.5,215.5C 218.162,215.277 221.495,214.277 224.5,212.5C 228.838,211.328 233.171,211.495 237.5,213C 239.324,213.66 240.657,214.827 241.5,216.5 Z"/></g>
<g><path style="opacity:0.598" fill="#868680" d="M 440.5,214.5 C 435.13,214.392 429.797,214.725 424.5,215.5C 427.356,213.994 430.523,213.328 434,213.5C 436.361,213.504 438.527,213.837 440.5,214.5 Z"/></g>
<g><path style="opacity:0.161" fill="#e8e8e2" d="M 92.5,215.5 C 92.1583,216.338 91.4916,216.672 90.5,216.5C 91.0059,214.895 91.6726,214.561 92.5,215.5 Z"/></g>
<g><path style="opacity:1" fill="#222220" d="M 101.5,215.5 C 101.833,216.5 102.5,217.167 103.5,217.5C 105.355,225.551 104.188,233.217 100,240.5C 97.1428,244.898 94.3095,249.232 91.5,253.5C 90.0937,253.973 89.427,254.973 89.5,256.5C 85.7934,261.208 81.4601,265.208 76.5,268.5C 75.1667,268.5 74.5,269.167 74.5,270.5C 72.5678,278.471 69.5678,285.971 65.5,293C 78.5657,304.131 93.5657,308.131 110.5,305C 114.419,303.46 117.919,301.293 121,298.5C 122.022,299.354 122.855,300.354 123.5,301.5C 115.543,311.709 105.209,315.376 92.5,312.5C 89.9164,310.528 86.9164,309.528 83.5,309.5C 75.6151,306.308 67.7818,302.975 60,299.5C 55.7478,303.259 50.9145,305.926 45.5,307.5C 39.8698,308.292 34.2031,308.625 28.5,308.5C 27.5084,308.672 26.8417,308.338 26.5,307.5C 26.1667,306.5 25.5,305.833 24.5,305.5C 20.8851,301.801 20.5518,297.801 23.5,293.5C 24.9063,293.027 25.573,292.027 25.5,290.5C 30.9588,284.854 37.6255,283.02 45.5,285C 48.3926,285.631 51.2259,286.464 54,287.5C 54.772,287.355 55.4387,287.022 56,286.5C 57.2126,284.075 58.3793,281.741 59.5,279.5C 60.7759,278.614 60.7759,277.614 59.5,276.5C 58.8933,276.624 58.56,276.957 58.5,277.5C 56.064,278.871 53.3973,279.871 50.5,280.5C 48.5168,280.843 47.1834,280.176 46.5,278.5C 48.0269,278.573 49.0269,277.906 49.5,276.5C 51.4044,276.262 52.7377,275.262 53.5,273.5C 55.9535,271.94 58.6202,270.94 61.5,270.5C 63.0481,270.179 63.7148,269.179 63.5,267.5C 63.8333,265.5 64.1667,263.5 64.5,261.5C 65.6772,259.321 66.6772,256.987 67.5,254.5C 69.4725,251.916 70.4725,248.916 70.5,245.5C 72.2662,237.967 75.5996,231.301 80.5,225.5C 82.2624,224.738 83.2624,223.404 83.5,221.5C 85.7488,220.92 87.4154,219.587 88.5,217.5C 88.8417,216.662 89.5084,216.328 90.5,216.5C 91.4916,216.672 92.1583,216.338 92.5,215.5C 95.6038,214.225 98.6038,214.225 101.5,215.5 Z M 97.5,222.5 C 98.4511,223.919 98.7845,225.585 98.5,227.5C 96.3545,233.276 94.0212,238.943 91.5,244.5C 90.0937,244.973 89.427,245.973 89.5,247.5C 88.0937,247.973 87.427,248.973 87.5,250.5C 86.0937,250.973 85.427,251.973 85.5,253.5C 84.5,253.833 83.8333,254.5 83.5,255.5C 81.8333,256.5 80.5,257.833 79.5,259.5C 78.6618,259.158 78.3284,258.492 78.5,257.5C 83.4912,245.157 89.8245,233.49 97.5,222.5 Z M 43.5,292.5 C 45.2143,293.738 47.2143,294.405 49.5,294.5C 49.1667,295.5 48.5,296.167 47.5,296.5C 45.3511,298.746 42.6844,300.246 39.5,301C 35.5138,301.499 31.5138,301.666 27.5,301.5C 27.6423,298.383 28.9756,295.883 31.5,294C 35.3628,292.646 39.3628,292.146 43.5,292.5 Z"/></g>
<g><path style="opacity:0.004" fill="#f2f2ed" d="M 101.5,215.5 C 102.833,215.5 103.5,216.167 103.5,217.5C 102.5,217.167 101.833,216.5 101.5,215.5 Z"/></g>
<g><path style="opacity:1" fill="#1a1a19" d="M 316.5,216.5 C 316.833,217.5 317.5,218.167 318.5,218.5C 319.167,218.5 319.5,218.833 319.5,219.5C 319.5,224.5 319.5,229.5 319.5,234.5C 317.946,241.284 314.612,246.951 309.5,251.5C 308.094,251.973 307.427,252.973 307.5,254.5C 307.5,255.167 307.167,255.5 306.5,255.5C 304.195,253.955 303.862,251.955 305.5,249.5C 310.72,242.719 314.054,235.052 315.5,226.5C 315.16,224.488 314.827,222.488 314.5,220.5C 313.081,219.549 311.415,219.216 309.5,219.5C 309.5,220.833 309.5,222.167 309.5,223.5C 305.913,232.515 303.58,241.848 302.5,251.5C 302.167,251.5 301.833,251.5 301.5,251.5C 300.853,252.274 300.52,253.274 300.5,254.5C 300.986,256.304 301.653,257.971 302.5,259.5C 302.833,260.833 303.167,260.833 303.5,259.5C 304.833,259.167 306.167,258.833 307.5,258.5C 315.313,258.923 317.313,262.59 313.5,269.5C 310.149,272.848 306.482,275.848 302.5,278.5C 301.711,278.783 301.044,279.283 300.5,280C 303.482,280.498 306.482,280.665 309.5,280.5C 310.75,280.577 311.583,281.244 312,282.5C 312.326,286.53 312.326,290.53 312,294.5C 315.025,292.639 317.525,290.306 319.5,287.5C 320.117,287.389 320.617,287.056 321,286.5C 321.499,281.845 321.666,277.179 321.5,272.5C 321.156,267.878 321.823,263.545 323.5,259.5C 324.404,258.791 324.737,257.791 324.5,256.5C 322.833,256.5 321.167,256.5 319.5,256.5C 317.972,256.483 317.472,255.816 318,254.5C 320.456,253.426 322.956,252.426 325.5,251.5C 327.538,248.789 327.538,246.289 325.5,244C 326.489,241.842 328.156,240.675 330.5,240.5C 333.152,240.59 335.485,239.924 337.5,238.5C 337.833,238.5 338.167,238.5 338.5,238.5C 340.781,238.077 342.448,238.744 343.5,240.5C 343.405,242.786 342.738,244.786 341.5,246.5C 340.218,247.708 340.218,249.042 341.5,250.5C 342.107,250.376 342.44,250.043 342.5,249.5C 349.913,247.437 357.579,246.104 365.5,245.5C 369.042,245.187 372.375,245.521 375.5,246.5C 374.942,247.79 373.942,248.623 372.5,249C 361.532,251.383 350.532,253.55 339.5,255.5C 335.669,266.15 333.669,277.15 333.5,288.5C 332.94,293.909 333.94,294.576 336.5,290.5C 335.11,277.779 340.444,269.279 352.5,265C 366.917,259.421 373.083,264.255 371,279.5C 370.315,282.579 369.481,285.579 368.5,288.5C 367.427,289.251 367.26,290.251 368,291.5C 369.417,290.922 370.25,289.922 370.5,288.5C 371.701,286.091 373.367,284.091 375.5,282.5C 376.906,282.027 377.573,281.027 377.5,279.5C 379.005,275.647 380.005,271.647 380.5,267.5C 379.89,266.609 379.557,265.609 379.5,264.5C 380.568,263.566 381.901,263.232 383.5,263.5C 384.29,264.401 385.29,265.068 386.5,265.5C 388.385,267.053 389.385,269.053 389.5,271.5C 389.233,277.838 388.9,284.171 388.5,290.5C 391.712,290.288 393.712,288.621 394.5,285.5C 395.109,280.188 395.609,274.854 396,269.5C 396.406,266.258 397.239,263.258 398.5,260.5C 399.924,258.485 400.59,256.152 400.5,253.5C 402.334,244.989 405.334,236.989 409.5,229.5C 411.262,228.738 412.262,227.404 412.5,225.5C 414.964,220.373 418.964,217.04 424.5,215.5C 429.797,214.725 435.13,214.392 440.5,214.5C 441.5,214.833 442.167,215.5 442.5,216.5C 443.344,220.099 443.677,223.766 443.5,227.5C 442.221,235.059 439.054,241.726 434,247.5C 428.118,256.388 421.118,264.388 413,271.5C 412.79,273.058 412.29,274.391 411.5,275.5C 409.591,279.754 409.258,284.088 410.5,288.5C 411.11,289.391 411.443,290.391 411.5,291.5C 412.348,293.093 413.681,294.26 415.5,295C 414.944,295.383 414.611,295.883 414.5,296.5C 407.056,299.288 401.223,297.288 397,290.5C 394.823,293.523 391.989,295.523 388.5,296.5C 385.43,296.632 382.43,296.299 379.5,295.5C 378.596,294.791 378.263,293.791 378.5,292.5C 378.663,290.143 378.497,287.81 378,285.5C 376.961,286.244 376.461,287.244 376.5,288.5C 376.167,289.5 375.5,290.167 374.5,290.5C 373.5,290.833 372.833,291.5 372.5,292.5C 371.5,292.833 370.833,293.5 370.5,294.5C 368.834,296.828 366.501,297.828 363.5,297.5C 361.117,297.639 359.117,296.972 357.5,295.5C 357.289,293.576 356.623,293.243 355.5,294.5C 350.118,299.8 344.618,299.8 339,294.5C 335.604,298.203 331.437,299.369 326.5,298C 324.676,297.34 323.343,296.173 322.5,294.5C 322.214,292.067 321.548,292.067 320.5,294.5C 316.268,299.56 310.935,301.227 304.5,299.5C 304.027,298.094 303.027,297.427 301.5,297.5C 300.436,293.642 301.103,289.975 303.5,286.5C 303.145,285.478 302.478,284.811 301.5,284.5C 300.178,284.33 299.011,284.663 298,285.5C 297.505,287.473 297.338,289.473 297.5,291.5C 297.411,298.063 294.078,300.563 287.5,299C 285.963,297.89 285.297,296.39 285.5,294.5C 285.762,293.022 285.429,291.689 284.5,290.5C 283.478,290.855 282.811,291.522 282.5,292.5C 275.492,300.449 267.159,302.282 257.5,298C 254.603,296.285 253.269,293.785 253.5,290.5C 253.799,288.396 253.466,286.396 252.5,284.5C 250.889,285.32 250.222,286.654 250.5,288.5C 250.573,290.027 249.906,291.027 248.5,291.5C 247.5,291.833 246.833,292.5 246.5,293.5C 245.415,295.587 243.749,296.92 241.5,297.5C 237.818,297.335 234.152,297.501 230.5,298C 229.944,298.383 229.611,298.883 229.5,299.5C 229.5,299.833 229.5,300.167 229.5,300.5C 228.512,299.205 227.512,297.872 226.5,296.5C 224.688,294.539 223.688,292.206 223.5,289.5C 223.467,285.131 223.8,280.798 224.5,276.5C 224.427,274.973 225.094,273.973 226.5,273.5C 227.906,273.027 228.573,272.027 228.5,270.5C 230.404,270.262 231.738,269.262 232.5,267.5C 233.749,265.864 235.416,264.697 237.5,264C 244.714,261.668 249.714,263.835 252.5,270.5C 252.18,273.898 252.513,277.232 253.5,280.5C 254.298,280.043 254.631,279.376 254.5,278.5C 254.5,277.833 254.5,277.167 254.5,276.5C 256.934,273.562 259.601,270.729 262.5,268C 263.745,267.209 265.078,266.709 266.5,266.5C 268.027,266.573 269.027,265.906 269.5,264.5C 279.871,260.091 284.705,263.424 284,274.5C 283.576,277.025 282.41,279.025 280.5,280.5C 278.901,280.768 277.568,280.434 276.5,279.5C 277.751,276.594 278.251,273.594 278,270.5C 277.184,269.177 276.017,268.511 274.5,268.5C 273.094,268.973 272.427,269.973 272.5,271.5C 269.579,277.515 268.413,283.848 269,290.5C 269.368,291.91 270.201,292.91 271.5,293.5C 273.45,292.628 275.45,291.961 277.5,291.5C 280.167,290.833 281.833,289.167 282.5,286.5C 283.504,285.317 284.338,283.984 285,282.5C 285.18,268.261 286.347,254.261 288.5,240.5C 289.924,238.485 290.59,236.152 290.5,233.5C 291.127,229.58 292.793,226.247 295.5,223.5C 296.906,223.027 297.573,222.027 297.5,220.5C 298.262,218.738 299.596,217.738 301.5,217.5C 303.027,217.573 304.027,216.906 304.5,215.5C 308.112,214.489 311.779,214.322 315.5,215C 316.056,215.383 316.389,215.883 316.5,216.5 Z M 430.5,242.5 C 429.094,242.973 428.427,243.973 428.5,245.5C 426.6,247.619 424.934,249.953 423.5,252.5C 422.094,252.973 421.427,253.973 421.5,255.5C 419.5,256.833 417.833,258.5 416.5,260.5C 415.833,260.5 415.5,260.167 415.5,259.5C 416.774,257.007 417.44,254.341 417.5,251.5C 418.931,250.22 419.598,248.553 419.5,246.5C 421.831,241.171 424.164,235.838 426.5,230.5C 427.89,229.101 428.89,227.434 429.5,225.5C 430.5,225.167 431.167,224.5 431.5,223.5C 432.906,223.027 433.573,222.027 433.5,220.5C 435.117,219.962 436.784,219.629 438.5,219.5C 438.605,223.687 437.772,227.687 436,231.5C 434.14,235.22 432.307,238.886 430.5,242.5 Z M 314.5,220.5 C 314.827,222.488 315.16,224.488 315.5,226.5C 314.054,235.052 310.72,242.719 305.5,249.5C 304.5,250.167 303.5,250.833 302.5,251.5C 303.58,241.848 305.913,232.515 309.5,223.5C 310.374,221.31 312.041,220.31 314.5,220.5 Z M 384.5,249.5 C 385.167,249.5 385.833,249.5 386.5,249.5C 386.5,250.833 386.5,252.167 386.5,253.5C 385.833,252.833 385.167,252.167 384.5,251.5C 384.5,250.833 384.5,250.167 384.5,249.5 Z M 308.5,263.5 C 308.5,264.5 308.5,265.5 308.5,266.5C 307.094,266.973 306.427,267.973 306.5,269.5C 304.5,270.833 302.833,272.5 301.5,274.5C 300.761,274.631 300.094,274.464 299.5,274C 300.337,272.989 300.67,271.822 300.5,270.5C 302.543,269.421 303.876,267.754 304.5,265.5C 306.062,265.267 307.395,264.6 308.5,263.5 Z M 359.5,269.5 C 359.007,271.806 358.674,274.139 358.5,276.5C 357.21,279.642 356.21,282.975 355.5,286.5C 353.738,287.262 352.738,288.596 352.5,290.5C 352.167,290.5 351.833,290.5 351.5,290.5C 351.825,282.513 354.492,275.513 359.5,269.5 Z M 240.5,279.5 C 240.402,281.553 241.069,283.22 242.5,284.5C 243.306,285.728 244.306,286.728 245.5,287.5C 244.197,289.142 242.864,290.809 241.5,292.5C 240.391,292.443 239.391,292.11 238.5,291.5C 238.5,291.167 238.5,290.833 238.5,290.5C 238.334,286.486 238.501,282.486 239,278.5C 239.383,279.056 239.883,279.389 240.5,279.5 Z"/></g>
<g><path style="opacity:0.612" fill="#ababa8" d="M 304.5,215.5 C 304.027,216.906 303.027,217.573 301.5,217.5C 301.973,216.094 302.973,215.427 304.5,215.5 Z"/></g>
<g><path style="opacity:0.004" fill="#bebebd" d="M 316.5,216.5 C 317.833,216.5 318.5,217.167 318.5,218.5C 317.5,218.167 316.833,217.5 316.5,216.5 Z"/></g>
<g><path style="opacity:0.839" fill="#676662" d="M 213.5,215.5 C 210.992,217.071 208.492,218.738 206,220.5C 205.329,219.748 204.496,219.414 203.5,219.5C 206.518,217.6 209.851,216.267 213.5,215.5 Z"/></g>
<g><path style="opacity:0.529" fill="#8d8c88" d="M 241.5,216.5 C 242.906,216.973 243.573,217.973 243.5,219.5C 242.094,219.027 241.427,218.027 241.5,216.5 Z"/></g>
<g><path style="opacity:0.851" fill="#70716b" d="M 88.5,217.5 C 87.4154,219.587 85.7488,220.92 83.5,221.5C 84.5846,219.413 86.2512,218.08 88.5,217.5 Z"/></g>
<g><path style="opacity:0.741" fill="#8c8c86" d="M 203.5,219.5 C 203.027,220.906 202.027,221.573 200.5,221.5C 200.973,220.094 201.973,219.427 203.5,219.5 Z"/></g>
<g><path style="opacity:0.949" fill="#737470" d="M 314.5,220.5 C 312.041,220.31 310.374,221.31 309.5,223.5C 309.5,222.167 309.5,220.833 309.5,219.5C 311.415,219.216 313.081,219.549 314.5,220.5 Z"/></g>
<g><path style="opacity:0.102" fill="#ccccc8" d="M 97.5,222.5 C 97.56,221.957 97.8933,221.624 98.5,221.5C 99.7928,223.636 99.7928,225.636 98.5,227.5C 98.7845,225.585 98.4511,223.919 97.5,222.5 Z"/></g>
<g><path style="opacity:0.816" fill="#7e7e73" d="M 297.5,220.5 C 297.573,222.027 296.906,223.027 295.5,223.5C 295.427,221.973 296.094,220.973 297.5,220.5 Z"/></g>
<g><path style="opacity:0.004" fill="#c5c5c3" d="M 433.5,220.5 C 433.573,222.027 432.906,223.027 431.5,223.5C 431.427,221.973 432.094,220.973 433.5,220.5 Z"/></g>
<g><path style="opacity:0.816" fill="#83877d" d="M 83.5,221.5 C 83.2624,223.404 82.2624,224.738 80.5,225.5C 80.7376,223.596 81.7376,222.262 83.5,221.5 Z"/></g>
<g><path style="opacity:0.537" fill="#9f9e99" d="M 442.5,216.5 C 443.117,216.611 443.617,216.944 444,217.5C 444.808,221.027 444.641,224.36 443.5,227.5C 443.677,223.766 443.344,220.099 442.5,216.5 Z"/></g>
<g><path style="opacity:0.818" fill="#777973" d="M 243.5,219.5 C 244.434,220.772 245.101,222.272 245.5,224C 244.965,226.996 244.298,229.829 243.5,232.5C 243.5,228.167 243.5,223.833 243.5,219.5 Z"/></g>
<g><path style="opacity:0.369" fill="#bebeb8" d="M 197.5,223.5 C 197.167,224.5 196.5,225.167 195.5,225.5C 195.5,224.167 196.167,223.5 197.5,223.5 Z"/></g>
<g><path style="opacity:0.894" fill="#797971" d="M 319.5,219.5 C 320.633,221.055 321.299,222.889 321.5,225C 321.054,228.35 320.388,231.517 319.5,234.5C 319.5,229.5 319.5,224.5 319.5,219.5 Z"/></g>
<g><path style="opacity:0.963" fill="#787874" d="M 429.5,225.5 C 428.89,227.434 427.89,229.101 426.5,230.5C 426.241,228.011 427.241,226.344 429.5,225.5 Z"/></g>
<g><path style="opacity:0.643" fill="#86877e" d="M 412.5,225.5 C 412.262,227.404 411.262,228.738 409.5,229.5C 409.738,227.596 410.738,226.262 412.5,225.5 Z"/></g>
<g><path style="opacity:0.89" fill="#606159" d="M 195.5,225.5 C 193.761,228.243 191.427,230.243 188.5,231.5C 190.239,228.757 192.573,226.757 195.5,225.5 Z"/></g>
<g><path style="opacity:0.914" fill="#6a6a63" d="M 290.5,233.5 C 290.59,236.152 289.924,238.485 288.5,240.5C 288.41,237.848 289.076,235.515 290.5,233.5 Z"/></g>
<g><path style="opacity:0.247" fill="#d9d9d0" d="M 338.5,238.5 C 340.265,237.539 342.265,237.205 344.5,237.5C 344.737,238.791 344.404,239.791 343.5,240.5C 342.448,238.744 340.781,238.077 338.5,238.5 Z"/></g>
<g><path style="opacity:0.239" fill="#b9b9b5" d="M 236.5,237.5 C 236.573,239.027 235.906,240.027 234.5,240.5C 234.427,238.973 235.094,237.973 236.5,237.5 Z"/></g>
<g><path style="opacity:0.969" fill="#676761" d="M 337.5,238.5 C 335.485,239.924 333.152,240.59 330.5,240.5C 332.515,239.076 334.848,238.41 337.5,238.5 Z"/></g>
<g><path style="opacity:0.999" fill="#232321" d="M 392.5,242.5 C 393.299,245.43 393.632,248.43 393.5,251.5C 392.351,255.484 390.018,258.484 386.5,260.5C 385.508,260.328 384.842,260.662 384.5,261.5C 383.833,261.5 383.5,261.833 383.5,262.5C 381.59,261.025 380.424,259.025 380,256.5C 379.19,252.642 379.357,248.976 380.5,245.5C 381.833,244.833 382.833,243.833 383.5,242.5C 386.5,239.833 389.5,239.833 392.5,242.5 Z M 384.5,249.5 C 385.167,249.5 385.833,249.5 386.5,249.5C 386.5,250.833 386.5,252.167 386.5,253.5C 385.833,252.833 385.167,252.167 384.5,251.5C 384.5,250.833 384.5,250.167 384.5,249.5 Z"/></g>
<g><path style="opacity:0.471" fill="#8f9083" d="M 179.5,242.5 C 179.573,244.027 178.906,245.027 177.5,245.5C 177.427,243.973 178.094,242.973 179.5,242.5 Z"/></g>
<g><path style="opacity:0.69" fill="#94948c" d="M 365.5,245.5 C 369.019,244.192 372.685,244.192 376.5,245.5C 376.376,246.107 376.043,246.44 375.5,246.5C 372.375,245.521 369.042,245.187 365.5,245.5 Z"/></g>
<g><path style="opacity:0.431" fill="#a09e99" d="M 383.5,242.5 C 382.833,243.833 381.833,244.833 380.5,245.5C 380.5,243.5 381.5,242.5 383.5,242.5 Z"/></g>
<g><path style="opacity:0.522" fill="#898985" d="M 430.5,242.5 C 430.573,244.027 429.906,245.027 428.5,245.5C 428.427,243.973 429.094,242.973 430.5,242.5 Z"/></g>
<g><path style="opacity:0.384" fill="#9fa199" d="M 91.5,244.5 C 91.573,246.027 90.9063,247.027 89.5,247.5C 89.427,245.973 90.0937,244.973 91.5,244.5 Z"/></g>
<g><path style="opacity:0.58" fill="#a8a8a0" d="M 392.5,242.5 C 395.947,245.234 396.281,248.234 393.5,251.5C 393.632,248.43 393.299,245.43 392.5,242.5 Z"/></g>
<g><path style="opacity:0.847" fill="#91908c" d="M 70.5,245.5 C 70.4725,248.916 69.4725,251.916 67.5,254.5C 67.9281,251.215 68.9281,248.215 70.5,245.5 Z"/></g>
<g><path style="opacity:0.014" fill="#e5e5e3" d="M 386.5,249.5 C 385.833,249.5 385.167,249.5 384.5,249.5C 384.737,245.711 385.404,245.711 386.5,249.5 Z"/></g>
<g><path style="opacity:0.345" fill="#aaaca5" d="M 89.5,247.5 C 89.573,249.027 88.9063,250.027 87.5,250.5C 87.427,248.973 88.0937,247.973 89.5,247.5 Z"/></g>
<g><path style="opacity:0.694" fill="#878684" d="M 341.5,246.5 C 341.263,247.791 341.596,248.791 342.5,249.5C 342.44,250.043 342.107,250.376 341.5,250.5C 340.218,249.042 340.218,247.708 341.5,246.5 Z"/></g>
<g><path style="opacity:0.353" fill="#afb1ad" d="M 419.5,246.5 C 419.598,248.553 418.931,250.22 417.5,251.5C 417.402,249.447 418.069,247.78 419.5,246.5 Z"/></g>
<g><path style="opacity:1" fill="#1d1d1c" d="M 167.5,271.5 C 164.359,272.321 161.025,272.821 157.5,273C 156.748,273.671 156.414,274.504 156.5,275.5C 155.833,275.5 155.167,275.5 154.5,275.5C 150.949,282.412 146.949,289.245 142.5,296C 138.726,297.183 135.559,296.349 133,293.5C 130.934,290.039 129.434,286.373 128.5,282.5C 127.699,280.207 127.032,280.54 126.5,283.5C 126.155,286.198 124.822,288.198 122.5,289.5C 121.094,289.973 120.427,290.973 120.5,292.5C 119.738,294.262 118.404,295.262 116.5,295.5C 115.508,295.328 114.842,295.662 114.5,296.5C 111.833,296.5 109.167,296.5 106.5,296.5C 105.508,296.672 104.842,296.338 104.5,295.5C 103.833,294.167 102.833,293.167 101.5,292.5C 101.214,290.067 100.548,290.067 99.5,292.5C 98.5,292.833 97.8333,293.5 97.5,294.5C 97.0269,295.906 96.0269,296.573 94.5,296.5C 91.8333,296.5 89.1667,296.5 86.5,296.5C 84.5891,296.426 83.4224,295.426 83,293.5C 82.5045,291.527 82.3379,289.527 82.5,287.5C 83.3007,285.958 83.634,284.292 83.5,282.5C 84.1009,279.032 85.1009,275.699 86.5,272.5C 87.029,270.229 87.3623,267.896 87.5,265.5C 96.3364,264.871 99.8364,269.204 98,278.5C 97.454,281.379 96.6206,284.046 95.5,286.5C 94.2973,287.943 93.7973,289.609 94,291.5C 95.045,290.627 95.8783,289.627 96.5,288.5C 100.74,281.764 104.407,274.764 107.5,267.5C 109.379,266.659 111.379,266.325 113.5,266.5C 115.252,270.227 115.919,274.227 115.5,278.5C 115.073,281.01 114.407,283.343 113.5,285.5C 112.105,287.847 112.272,290.181 114,292.5C 114.717,291.956 115.217,291.289 115.5,290.5C 121.549,282.852 124.715,274.185 125,264.5C 123.905,263.307 123.072,261.973 122.5,260.5C 122.557,259.391 122.89,258.391 123.5,257.5C 124.347,256.034 125.68,255.2 127.5,255C 129.712,254.211 131.712,254.378 133.5,255.5C 133.738,257.404 134.738,258.738 136.5,259.5C 138.201,267.07 139.535,274.737 140.5,282.5C 140.312,284.103 140.812,285.437 142,286.5C 142.464,285.906 142.631,285.239 142.5,284.5C 144.358,280.263 146.024,275.93 147.5,271.5C 144.883,266.444 144.049,261.111 145,255.5C 146.132,252.1 148.465,250.1 152,249.5C 154.333,250.5 156,252.167 157,254.5C 157.746,259.454 157.246,264.287 155.5,269C 155.833,269.5 156.167,270 156.5,270.5C 160.094,271.426 163.76,271.759 167.5,271.5 Z M 152.5,261.5 C 151.883,261.611 151.383,261.944 151,262.5C 151.068,260.658 150.901,258.991 150.5,257.5C 151.117,257.389 151.617,257.056 152,256.5C 152.494,258.134 152.66,259.801 152.5,261.5 Z"/></g>
<g><path style="opacity:0.009" fill="#fcfcfa" d="M 384.5,251.5 C 385.167,252.167 385.833,252.833 386.5,253.5C 386.217,254.289 385.717,254.956 385,255.5C 384.51,254.207 384.343,252.873 384.5,251.5 Z"/></g>
<g><path style="opacity:0.522" fill="#939390" d="M 87.5,250.5 C 87.573,252.027 86.9063,253.027 85.5,253.5C 85.427,251.973 86.0937,250.973 87.5,250.5 Z"/></g>
<g><path style="opacity:0.008" fill="#c9c8c5" d="M 309.5,251.5 C 309.573,253.027 308.906,254.027 307.5,254.5C 307.427,252.973 308.094,251.973 309.5,251.5 Z"/></g>
<g><path style="opacity:1" fill="#3a3a37" d="M 305.5,249.5 C 303.862,251.955 304.195,253.955 306.5,255.5C 305.5,256.833 304.5,258.167 303.5,259.5C 303.167,259.5 302.833,259.5 302.5,259.5C 301.653,257.971 300.986,256.304 300.5,254.5C 300.52,253.274 300.853,252.274 301.5,251.5C 301.833,252.833 302.167,252.833 302.5,251.5C 303.5,250.833 304.5,250.167 305.5,249.5 Z"/></g>
<g><path style="opacity:0.008" fill="#cbcbcb" d="M 91.5,253.5 C 91.573,255.027 90.9063,256.027 89.5,256.5C 89.427,254.973 90.0937,253.973 91.5,253.5 Z"/></g>
<g><path style="opacity:0.451" fill="#9f9f9c" d="M 423.5,252.5 C 423.573,254.027 422.906,255.027 421.5,255.5C 421.427,253.973 422.094,252.973 423.5,252.5 Z"/></g>
<g><path style="opacity:0.808" fill="#888881" d="M 83.5,255.5 C 83.1667,257.833 81.8333,259.167 79.5,259.5C 80.5,257.833 81.8333,256.5 83.5,255.5 Z"/></g>
<g><path style="opacity:0.329" fill="#b4b3ad" d="M 319.5,256.5 C 321.167,256.5 322.833,256.5 324.5,256.5C 324.737,257.791 324.404,258.791 323.5,259.5C 322.552,258.022 321.219,257.022 319.5,256.5 Z"/></g>
<g><path style="opacity:0.929" fill="#63625c" d="M 400.5,253.5 C 400.59,256.152 399.924,258.485 398.5,260.5C 398.41,257.848 399.076,255.515 400.5,253.5 Z"/></g>
<g><path style="opacity:0.682" fill="#82827b" d="M 133.5,255.5 C 135.262,256.262 136.262,257.596 136.5,259.5C 134.738,258.738 133.738,257.404 133.5,255.5 Z"/></g>
<g><path style="opacity:0.991" fill="#464641" d="M 307.5,258.5 C 315.347,256.183 318.18,259.183 316,267.5C 315.292,268.381 314.458,269.047 313.5,269.5C 317.313,262.59 315.313,258.923 307.5,258.5 Z"/></g>
<g><path style="opacity:0.11" fill="#cdcdcd" d="M 78.5,257.5 C 78.3284,258.492 78.6618,259.158 79.5,259.5C 78.8783,260.627 78.045,261.627 77,262.5C 76.7973,260.609 77.2973,258.943 78.5,257.5 Z"/></g>
<g><path style="opacity:0.584" fill="#878780" d="M 123.5,257.5 C 122.89,258.391 122.557,259.391 122.5,260.5C 121.115,259.053 121.448,258.053 123.5,257.5 Z"/></g>
<g><path style="opacity:0.004" fill="#fefffe" d="M 64.5,261.5 C 63.8333,260.167 63.8333,260.167 64.5,261.5 Z"/></g>
<g><path style="opacity:0.005" fill="#f3f3f2" d="M 384.5,261.5 C 384.842,260.662 385.508,260.328 386.5,260.5C 387.494,262.854 386.494,263.854 383.5,263.5C 383.5,263.167 383.5,262.833 383.5,262.5C 385.224,262.539 385.557,262.206 384.5,261.5 Z"/></g>
<g><path style="opacity:0.067" fill="#d5d5d1" d="M 415.5,259.5 C 415.5,260.167 415.833,260.5 416.5,260.5C 416.217,261.289 415.717,261.956 415,262.5C 414.26,261.251 414.427,260.251 415.5,259.5 Z"/></g>
<g><path style="opacity:0.212" fill="#c3c3bd" d="M 150.5,257.5 C 150.901,258.991 151.068,260.658 151,262.5C 151.383,261.944 151.883,261.611 152.5,261.5C 151.133,266.597 150.133,266.264 149.5,260.5C 149.52,259.274 149.853,258.274 150.5,257.5 Z"/></g>
<g><path style="opacity:0.361" fill="#a1a19f" d="M 300.5,260.5 C 300.842,261.338 301.508,261.672 302.5,261.5C 299.737,265.452 299.07,265.119 300.5,260.5 Z"/></g>
<g><path style="opacity:0.004" fill="#d4d3ce" d="M 308.5,263.5 C 307.395,264.6 306.062,265.267 304.5,265.5C 305.375,263.194 306.708,262.527 308.5,263.5 Z"/></g>
<g><path style="opacity:0.741" fill="#69695f" d="M 172.5,258.5 C 172.59,261.152 171.924,263.485 170.5,265.5C 170.41,262.848 171.076,260.515 172.5,258.5 Z"/></g>
<g><path style="opacity:0.004" fill="#fefffe" d="M 386.5,264.5 C 387.833,265.167 387.833,265.167 386.5,264.5 Z"/></g>
<g><path style="opacity:0.843" fill="#85857e" d="M 113.5,266.5 C 111.379,266.325 109.379,266.659 107.5,267.5C 109.013,264.073 111.013,263.739 113.5,266.5 Z"/></g>
<g><path style="opacity:0.749" fill="#8b8b85" d="M 269.5,264.5 C 269.027,265.906 268.027,266.573 266.5,266.5C 266.973,265.094 267.973,264.427 269.5,264.5 Z"/></g>
<g><path style="opacity:0.345" fill="#b6b6af" d="M 379.5,264.5 C 379.557,265.609 379.89,266.609 380.5,267.5C 378.448,266.947 378.115,265.947 379.5,264.5 Z"/></g>
<g><path style="opacity:1" fill="#5f605a" d="M 87.5,265.5 C 87.3623,267.896 87.029,270.229 86.5,272.5C 86.6168,270.516 85.9501,268.85 84.5,267.5C 85.0047,266.081 86.0047,265.415 87.5,265.5 Z"/></g>
<g><path style="opacity:0.729" fill="#95958b" d="M 308.5,266.5 C 308.573,268.027 307.906,269.027 306.5,269.5C 306.427,267.973 307.094,266.973 308.5,266.5 Z"/></g>
<g><path style="opacity:0.012" fill="#dddddb" d="M 76.5,268.5 C 76.1667,269.5 75.5,270.167 74.5,270.5C 74.5,269.167 75.1667,268.5 76.5,268.5 Z"/></g>
<g><path style="opacity:0.698" fill="#84867f" d="M 232.5,267.5 C 231.738,269.262 230.404,270.262 228.5,270.5C 229.262,268.738 230.596,267.738 232.5,267.5 Z"/></g>
<g><path style="opacity:0.624" fill="#a5a59c" d="M 63.5,267.5 C 63.7148,269.179 63.0481,270.179 61.5,270.5C 61.9321,269.29 62.5987,268.29 63.5,267.5 Z"/></g>
<g><path style="opacity:0.565" fill="#9a9a95" d="M 170.5,265.5 C 170.975,268.082 170.308,270.082 168.5,271.5C 169.048,269.374 169.715,267.374 170.5,265.5 Z"/></g>
<g><path style="opacity:0.004" fill="#d3d3d3" d="M 247.5,270.5 C 246.833,270.5 246.5,270.833 246.5,271.5C 245.427,270.749 245.26,269.749 246,268.5C 246.717,269.044 247.217,269.711 247.5,270.5 Z"/></g>
<g><path style="opacity:0.004" fill="#cdcecb" d="M 274.5,268.5 C 274.573,270.027 273.906,271.027 272.5,271.5C 272.427,269.973 273.094,268.973 274.5,268.5 Z"/></g>
<g><path style="opacity:0.82" fill="#82827e" d="M 113.5,266.5 C 117.895,269.932 118.562,273.932 115.5,278.5C 115.919,274.227 115.252,270.227 113.5,266.5 Z"/></g>
<g><path style="opacity:0.741" fill="#91928b" d="M 228.5,270.5 C 228.573,272.027 227.906,273.027 226.5,273.5C 226.427,271.973 227.094,270.973 228.5,270.5 Z"/></g>
<g><path style="opacity:0.918" fill="#747571" d="M 359.5,269.5 C 359.833,269.5 360.167,269.5 360.5,269.5C 360.59,272.152 359.924,274.485 358.5,276.5C 358.674,274.139 359.007,271.806 359.5,269.5 Z"/></g>
<g><path style="opacity:0.384" fill="#acadab" d="M 240.5,279.5 C 239.883,279.389 239.383,279.056 239,278.5C 238.501,282.486 238.334,286.486 238.5,290.5C 237.124,283.199 237.624,275.866 240,268.5C 240.654,267.304 241.154,267.304 241.5,268.5C 240.574,272.094 240.241,275.76 240.5,279.5 Z"/></g>
<g><path style="opacity:0.549" fill="#9c9d97" d="M 53.5,273.5 C 52.7377,275.262 51.4044,276.262 49.5,276.5C 50.2623,274.738 51.5956,273.738 53.5,273.5 Z"/></g>
<g><path style="opacity:0.02" fill="#e3e3df" d="M 300.5,270.5 C 300.67,271.822 300.337,272.989 299.5,274C 300.094,274.464 300.761,274.631 301.5,274.5C 299.98,276.529 298.98,276.529 298.5,274.5C 298.668,272.829 299.335,271.496 300.5,270.5 Z"/></g>
<g><path style="opacity:0.016" fill="#d3d4d2" d="M 58.5,277.5 C 58.56,276.957 58.8933,276.624 59.5,276.5C 60.7759,277.614 60.7759,278.614 59.5,279.5C 59.6716,278.508 59.3382,277.842 58.5,277.5 Z"/></g>
<g><path style="opacity:0.776" fill="#84847d" d="M 49.5,276.5 C 49.0269,277.906 48.0269,278.573 46.5,278.5C 46.9731,277.094 47.9731,276.427 49.5,276.5 Z"/></g>
<g><path style="opacity:0.737" fill="#686964" d="M 252.5,270.5 C 253.285,272.374 253.952,274.374 254.5,276.5C 253.167,277.167 253.167,277.833 254.5,278.5C 254.631,279.376 254.298,280.043 253.5,280.5C 252.513,277.232 252.18,273.898 252.5,270.5 Z"/></g>
<g><path style="opacity:0.435" fill="#82827d" d="M 154.5,275.5 C 155.167,275.5 155.833,275.5 156.5,275.5C 161.167,275.5 165.833,275.5 170.5,275.5C 170.5,277.833 170.5,280.167 170.5,282.5C 169.539,280.735 169.205,278.735 169.5,276.5C 166.881,276.232 164.381,276.565 162,277.5C 159.393,276.877 156.893,276.21 154.5,275.5 Z"/></g>
<g><path style="opacity:0.675" fill="#95958f" d="M 302.5,278.5 C 304.833,279.167 307.167,279.833 309.5,280.5C 306.482,280.665 303.482,280.498 300.5,280C 301.044,279.283 301.711,278.783 302.5,278.5 Z"/></g>
<g><path style="opacity:0.004" fill="#fefffe" d="M 412.5,279.5 C 413.833,280.167 413.833,280.167 412.5,279.5 Z"/></g>
<g><path style="opacity:0.478" fill="#aeafa5" d="M 46.5,278.5 C 47.1834,280.176 48.5168,280.843 50.5,280.5C 48.7116,281.622 46.7116,281.789 44.5,281C 45.0659,280.005 45.7326,279.172 46.5,278.5 Z"/></g>
<g><path style="opacity:0.208" fill="#b3b3b3" d="M 243.5,276.5 C 244.885,277.574 246.051,278.907 247,280.5C 247.667,281.167 247.667,281.833 247,282.5C 245.053,280.937 243.886,278.937 243.5,276.5 Z"/></g>
<g><path style="opacity:0.718" fill="#88887e" d="M 276.5,279.5 C 277.568,280.434 278.901,280.768 280.5,280.5C 278.965,281.788 277.299,281.788 275.5,280.5C 275.624,279.893 275.957,279.56 276.5,279.5 Z"/></g>
<g><path style="opacity:0.741" fill="#8f8f89" d="M 377.5,279.5 C 377.573,281.027 376.906,282.027 375.5,282.5C 375.427,280.973 376.094,279.973 377.5,279.5 Z"/></g>
<g><path style="opacity:0.008" fill="#cbcbc9" d="M 128.5,282.5 C 127.833,282.833 127.167,283.167 126.5,283.5C 127.032,280.54 127.699,280.207 128.5,282.5 Z"/></g>
<g><path style="opacity:1" fill="#403f3d" d="M 414.5,296.5 C 414.611,295.883 414.944,295.383 415.5,295C 413.681,294.26 412.348,293.093 411.5,291.5C 412.117,291.611 412.617,291.944 413,292.5C 416.91,289.18 419.41,285.013 420.5,280C 421.784,279.316 422.951,279.483 424,280.5C 424.805,284.909 423.805,288.909 421,292.5C 419.362,294.734 417.195,296.067 414.5,296.5 Z"/></g>
<g><path style="opacity:0.004" fill="#fefffe" d="M 42.5,283.5 C 43.6009,282.402 44.9343,282.235 46.5,283C 45.2068,283.49 43.8734,283.657 42.5,283.5 Z"/></g>
<g><path style="opacity:0.557" fill="#818179" d="M 224.5,276.5 C 223.8,280.798 223.467,285.131 223.5,289.5C 222.84,288.036 222.507,286.369 222.5,284.5C 222.382,281.514 223.048,278.848 224.5,276.5 Z"/></g>
<g><path style="opacity:0.141" fill="#d4d4d0" d="M 140.5,282.5 C 141.167,283.167 141.833,283.833 142.5,284.5C 142.631,285.239 142.464,285.906 142,286.5C 140.812,285.437 140.312,284.103 140.5,282.5 Z"/></g>
<g><path style="opacity:0.814" fill="#51524d" d="M 321.5,272.5 C 321.666,277.179 321.499,281.845 321,286.5C 320.617,287.056 320.117,287.389 319.5,287.5C 320.068,282.363 320.734,277.363 321.5,272.5 Z"/></g>
<g><path style="opacity:0.369" fill="#9e9d98" d="M 411.5,275.5 C 410.921,280.013 410.587,284.347 410.5,288.5C 409.258,284.088 409.591,279.754 411.5,275.5 Z"/></g>
<g><path style="opacity:0.261" fill="#c1c1bd" d="M 253.5,290.5 C 252.71,289.391 252.21,288.058 252,286.5C 251.722,287.416 251.222,288.082 250.5,288.5C 250.222,286.654 250.889,285.32 252.5,284.5C 253.466,286.396 253.799,288.396 253.5,290.5 Z"/></g>
<g><path style="opacity:0.733" fill="#95958e" d="M 83.5,282.5 C 83.634,284.292 83.3007,285.958 82.5,287.5C 81.9569,287.44 81.6236,287.107 81.5,286.5C 81.9943,284.974 82.661,283.641 83.5,282.5 Z"/></g>
<g><path style="opacity:0.435" fill="#8e8e89" d="M 242.5,284.5 C 243.583,284.539 244.583,284.873 245.5,285.5C 246.773,286.257 246.773,286.923 245.5,287.5C 244.306,286.728 243.306,285.728 242.5,284.5 Z"/></g>
<g><path style="opacity:0.894" fill="#73746c" d="M 282.5,286.5 C 281.833,289.167 280.167,290.833 277.5,291.5C 278.833,289.5 280.5,287.833 282.5,286.5 Z"/></g>
<g><path style="opacity:0.843" fill="#7f7f78" d="M 355.5,286.5 C 355.262,288.404 354.262,289.738 352.5,290.5C 352.738,288.596 353.738,287.262 355.5,286.5 Z"/></g>
<g><path style="opacity:0.471" fill="#7a7975" d="M 113.5,285.5 C 113.077,287.781 113.744,289.448 115.5,290.5C 115.217,291.289 114.717,291.956 114,292.5C 112.272,290.181 112.105,287.847 113.5,285.5 Z"/></g>
<g><path style="opacity:0.369" fill="#a5a5a2" d="M 301.5,284.5 C 300.828,285.267 299.995,285.934 299,286.5C 298.802,288.382 298.302,290.048 297.5,291.5C 297.338,289.473 297.505,287.473 298,285.5C 299.011,284.663 300.178,284.33 301.5,284.5 Z"/></g>
<g><path style="opacity:0.657" fill="#8d8d88" d="M 389.5,271.5 C 390.274,277.339 390.441,283.339 390,289.5C 391.371,287.959 392.871,286.625 394.5,285.5C 393.712,288.621 391.712,290.288 388.5,290.5C 388.9,284.171 389.233,277.838 389.5,271.5 Z"/></g>
<g><path style="opacity:0.122" fill="#aaaba8" d="M 95.5,286.5 C 95.3284,287.492 95.6618,288.158 96.5,288.5C 95.8783,289.627 95.045,290.627 94,291.5C 93.7973,289.609 94.2973,287.943 95.5,286.5 Z"/></g>
<g><path style="opacity:0.212" fill="#a8a8a8" d="M 368.5,288.5 C 368.938,289.506 369.604,289.506 370.5,288.5C 370.25,289.922 369.417,290.922 368,291.5C 367.26,290.251 367.427,289.251 368.5,288.5 Z"/></g>
<g><path style="opacity:0.251" fill="#c1c1bb" d="M 378.5,292.5 C 377.833,291.167 377.167,289.833 376.5,288.5C 376.461,287.244 376.961,286.244 378,285.5C 378.497,287.81 378.663,290.143 378.5,292.5 Z"/></g>
<g><path style="opacity:0.012" fill="#c5c5c3" d="M 122.5,289.5 C 122.573,291.027 121.906,292.027 120.5,292.5C 120.427,290.973 121.094,289.973 122.5,289.5 Z"/></g>
<g><path style="opacity:0.02" fill="#d1d1d0" d="M 101.5,292.5 C 100.833,292.5 100.167,292.5 99.5,292.5C 100.548,290.067 101.214,290.067 101.5,292.5 Z"/></g>
<g><path style="opacity:0.008" fill="#d4d4d3" d="M 285.5,294.5 C 284.778,293.449 283.778,292.782 282.5,292.5C 282.811,291.522 283.478,290.855 284.5,290.5C 285.429,291.689 285.762,293.022 285.5,294.5 Z"/></g>
<g><path style="opacity:0.071" fill="#c6c6c4" d="M 333.5,288.5 C 334.268,289.263 334.768,290.263 335,291.5C 335.383,290.944 335.883,290.611 336.5,290.5C 333.94,294.576 332.94,293.909 333.5,288.5 Z"/></g>
<g><path style="opacity:0.004" fill="#d2d2cd" d="M 374.5,290.5 C 374.5,291.833 373.833,292.5 372.5,292.5C 372.833,291.5 373.5,290.833 374.5,290.5 Z"/></g>
<g><path style="opacity:0.345" fill="#afafaa" d="M 25.5,290.5 C 25.573,292.027 24.9063,293.027 23.5,293.5C 23.427,291.973 24.0937,290.973 25.5,290.5 Z"/></g>
<g><path style="opacity:0.675" fill="#a9a9a2" d="M 43.5,292.5 C 45.8984,292.259 47.8984,292.926 49.5,294.5C 47.2143,294.405 45.2143,293.738 43.5,292.5 Z"/></g>
<g><path style="opacity:0.176" fill="#d2d3d0" d="M 238.5,291.5 C 239.391,292.11 240.391,292.443 241.5,292.5C 240.053,293.885 239.053,293.552 238.5,291.5 Z"/></g>
<g><path style="opacity:0.004" fill="#ccccc9" d="M 248.5,291.5 C 248.5,292.833 247.833,293.5 246.5,293.5C 246.833,292.5 247.5,291.833 248.5,291.5 Z"/></g>
<g><path style="opacity:0.004" fill="#e0e0de" d="M 99.5,292.5 C 99.8693,294.993 99.2027,295.66 97.5,294.5C 97.8333,293.5 98.5,292.833 99.5,292.5 Z"/></g>
<g><path style="opacity:0.008" fill="#c8c8c5" d="M 101.5,292.5 C 102.833,293.167 103.833,294.167 104.5,295.5C 103.391,295.443 102.391,295.11 101.5,294.5C 101.5,293.833 101.5,293.167 101.5,292.5 Z"/></g>
<g><path style="opacity:0.133" fill="#c5c5c0" d="M 322.5,294.5 C 321.833,294.5 321.167,294.5 320.5,294.5C 321.548,292.067 322.214,292.067 322.5,294.5 Z"/></g>
<g><path style="opacity:0.525" fill="#b8b7b5" d="M 355.5,294.5 C 356.623,293.243 357.289,293.576 357.5,295.5C 356.833,295.167 356.167,294.833 355.5,294.5 Z"/></g>
<g><path style="opacity:0.004" fill="#cdcdc8" d="M 372.5,292.5 C 372.5,293.833 371.833,294.5 370.5,294.5C 370.833,293.5 371.5,292.833 372.5,292.5 Z"/></g>
<g><path style="opacity:0.004" fill="#fefffe" d="M 101.5,294.5 C 100.833,295.167 100.833,295.167 101.5,294.5 Z"/></g>
<g><path style="opacity:0.809" fill="#76766f" d="M 86.5,296.5 C 89.1667,296.5 91.8333,296.5 94.5,296.5C 91.7107,298.714 89.0441,298.714 86.5,296.5 Z"/></g>
<g><path style="opacity:0.009" fill="#e3e3e0" d="M 116.5,295.5 C 116.5,296.5 116.5,297.5 116.5,298.5C 113.863,297.768 111.363,297.768 109,298.5C 108.005,297.934 107.172,297.267 106.5,296.5C 109.167,296.5 111.833,296.5 114.5,296.5C 114.842,295.662 115.508,295.328 116.5,295.5 Z"/></g>
<g><path style="opacity:0.541" fill="#a6a6a0" d="M 379.5,295.5 C 382.43,296.299 385.43,296.632 388.5,296.5C 386.034,297.634 383.367,297.801 380.5,297C 379.944,296.617 379.611,296.117 379.5,295.5 Z"/></g>
<g><path style="opacity:1" fill="#434240" d="M 226.5,296.5 C 227.512,297.872 228.512,299.205 229.5,300.5C 226.506,303 223.173,305 219.5,306.5C 220.234,305.292 220.567,303.959 220.5,302.5C 219.167,302.5 217.833,302.5 216.5,302.5C 220.096,301.031 223.43,299.031 226.5,296.5 Z"/></g>
<g><path style="opacity:0.788" fill="#7f7d78" d="M 241.5,297.5 C 237.642,298.294 233.642,298.96 229.5,299.5C 229.611,298.883 229.944,298.383 230.5,298C 234.152,297.501 237.818,297.335 241.5,297.5 Z"/></g>
<g><path style="opacity:0.243" fill="#b0b0ab" d="M 301.5,297.5 C 303.027,297.427 304.027,298.094 304.5,299.5C 302.973,299.573 301.973,298.906 301.5,297.5 Z"/></g>
<g><path style="opacity:0.004" fill="#cacac5" d="M 178.5,299.5 C 179.5,299.833 180.167,300.5 180.5,301.5C 179.167,301.5 178.5,300.833 178.5,299.5 Z"/></g>
<g><path style="opacity:0.482" fill="#8f908b" d="M 180.5,301.5 C 182.027,301.427 183.027,302.094 183.5,303.5C 181.973,303.573 180.973,302.906 180.5,301.5 Z"/></g>
<g><path style="opacity:0.231" fill="#999a97" d="M 216.5,302.5 C 214.538,304.017 212.205,304.684 209.5,304.5C 207.631,304.493 205.964,304.16 204.5,303.5C 208.548,303.605 212.548,303.272 216.5,302.5 Z"/></g>
<g><path style="opacity:0.42" fill="#93918b" d="M 183.5,303.5 C 185.027,303.427 186.027,304.094 186.5,305.5C 184.973,305.573 183.973,304.906 183.5,303.5 Z"/></g>
<g><path style="opacity:0.004" fill="#cdcbca" d="M 24.5,305.5 C 25.5,305.833 26.1667,306.5 26.5,307.5C 25.1667,307.5 24.5,306.833 24.5,305.5 Z"/></g>
<g><path style="opacity:0.494" fill="#acaca6" d="M 45.5,307.5 C 42.4744,309.019 39.1411,309.685 35.5,309.5C 32.9746,309.497 30.6413,309.163 28.5,308.5C 34.2031,308.625 39.8698,308.292 45.5,307.5 Z"/></g>
<g><path style="opacity:0.855" fill="#93928e" d="M 83.5,309.5 C 86.9164,309.528 89.9164,310.528 92.5,312.5C 89.2154,312.072 86.2154,311.072 83.5,309.5 Z"/></g>
</svg>
