<?xml version="1.0" standalone="no"?>
<!DOCTYPE svg PUBLIC "-//W3C//DTD SVG 20010904//EN"
 "http://www.w3.org/TR/2001/REC-SVG-20010904/DTD/svg10.dtd">
<svg version="1.0" xmlns="http://www.w3.org/2000/svg"
 width="50.000000pt" height="50.000000pt" viewBox="0 0 50.000000 50.000000"
 preserveAspectRatio="xMidYMid meet">

<g transform="translate(0.000000,50.000000) scale(0.100000,-0.100000)"
fill="#000000" stroke="none">
<path d="M310 456 c-31 -17 -62 -71 -86 -149 -15 -48 -25 -62 -54 -78 -32 -18
-32 -19 -7 -14 18 4 27 1 27 -8 0 -25 -21 -36 -48 -26 -35 13 -68 4 -87 -25
-35 -54 16 -79 93 -46 l49 21 61 -25 c34 -14 75 -26 92 -26 35 0 90 25 90 41
0 5 -10 3 -22 -5 -31 -22 -100 -20 -153 5 -25 12 -47 25 -50 29 -9 14 37 103
65 127 56 46 102 152 79 179 -14 17 -17 17 -49 0z m35 -43 c-8 -35 -49 -105
-71 -124 -15 -13 -16 -12 -9 11 12 41 67 140 77 140 6 0 7 -12 3 -27z m-195
-263 c0 -14 -35 -30 -64 -30 -24 0 -35 18 -19 33 10 11 83 8 83 -3z"/>
</g>
</svg>
